<?xml version="1.0" standalone="no"?>
<!DOCTYPE svg PUBLIC "-//W3C//DTD SVG 20010904//EN"
 "http://www.w3.org/TR/2001/REC-SVG-20010904/DTD/svg10.dtd">
<svg version="1.0" xmlns="http://www.w3.org/2000/svg"
 width="1200.000000pt" height="683.000000pt" viewBox="0 0 1200.000000 683.000000"
 preserveAspectRatio="xMidYMid meet">

<g transform="translate(0.000000,683.000000) scale(0.100000,-0.100000)"
fill="#000000" stroke="none">
<path d="M9735 6496 c-53 -23 -60 -40 -58 -140 0 -50 -3 -95 -7 -101 -12 -14
-47 -169 -55 -240 -9 -86 -15 -104 -33 -110 -10 -2 -28 -15 -42 -28 -14 -13
-32 -26 -41 -29 -9 -4 -19 -19 -22 -35 -5 -25 -11 -29 -41 -31 -20 -2 -56 -6
-81 -11 -25 -5 -64 -5 -87 0 -24 4 -67 8 -96 9 -46 0 -89 15 -112 40 -19 20
-161 90 -171 84 -4 -2 9 -32 31 -65 38 -59 77 -146 69 -153 -2 -2 -40 -6 -84
-7 -78 -4 -80 -3 -78 19 2 16 -2 22 -17 22 -10 0 -22 -4 -25 -10 -10 -15 -85
-32 -98 -22 -18 14 -247 8 -275 -7 -29 -16 -70 -9 -227 37 -176 51 -206 54
-289 26 -38 -13 -80 -31 -92 -39 -17 -11 -30 -12 -49 -5 -34 13 -35 13 -29 -5
4 -10 0 -15 -11 -15 -10 0 -14 5 -9 13 9 15 -38 -23 -49 -40 -4 -7 -13 -13
-20 -13 -7 0 -30 -12 -51 -26 -26 -18 -34 -29 -26 -34 9 -5 9 -9 1 -14 -6 -4
-15 -4 -21 -1 -5 3 -10 -1 -10 -9 0 -9 -5 -16 -10 -16 -6 0 -35 -25 -65 -55
-30 -30 -63 -55 -74 -55 -30 0 -51 -11 -51 -26 0 -8 -10 -14 -23 -14 -13 0
-27 -4 -33 -9 -14 -14 -137 -62 -142 -56 -3 3 -11 0 -17 -5 -21 -17 -28 20 -9
41 9 10 39 30 66 43 45 22 47 26 29 35 -24 13 -51 14 -51 2 0 -12 -57 -66 -69
-66 -14 0 -61 -43 -61 -56 0 -5 -5 -7 -10 -4 -6 3 -13 -2 -17 -12 -14 -39 -24
-45 -51 -27 l-25 16 7 -38 c4 -22 14 -52 22 -68 19 -40 18 -82 -3 -90 -17 -7
-33 9 -33 31 0 7 -6 10 -13 7 -8 -3 -22 14 -35 42 -13 26 -25 44 -28 41 -3 -3
11 -40 31 -82 20 -42 35 -84 33 -93 -5 -26 -33 -25 -47 2 -15 27 -36 25 -44
-5 -5 -19 -47 -28 -47 -9 0 6 -7 10 -15 10 -8 0 -19 10 -26 22 -10 19 -12 20
-21 4 -9 -17 -11 -17 -29 0 -11 9 -22 14 -26 11 -3 -4 -12 2 -20 13 -17 24
-46 27 -41 4 5 -25 50 -55 94 -61 28 -4 47 -15 67 -39 16 -19 24 -34 18 -34
-6 0 -18 11 -27 25 -18 28 -45 32 -63 11 -10 -12 -39 -14 -147 -11 -75 2 -138
6 -141 9 -3 3 15 18 41 33 25 15 46 31 46 34 0 7 -62 19 -103 19 -25 0 -27 -3
-22 -22 16 -53 71 -141 108 -173 31 -27 38 -38 29 -47 -7 -7 -12 -9 -12 -6 0
4 -13 3 -29 -2 -23 -6 -31 -5 -36 7 -3 9 -8 13 -12 9 -6 -6 -43 67 -43 84 0 5
-9 30 -21 57 -19 44 -22 46 -31 27 -7 -15 -25 -25 -59 -31 -26 -6 -46 -7 -44
-2 5 7 -70 55 -96 61 -8 2 -16 12 -19 22 -9 31 -27 29 -33 -3 -9 -45 -37 -30
-37 19 0 34 -4 40 -42 60 -23 12 -64 41 -92 64 -28 24 -107 85 -176 136 -69
52 -199 153 -290 225 -91 72 -187 146 -215 165 -27 19 -52 38 -55 41 -5 5 -85
53 -168 100 -18 11 -46 19 -62 19 -17 0 -33 7 -38 17 -8 14 -31 17 -143 20
-78 2 -154 10 -181 19 -26 7 -60 14 -76 14 -16 0 -35 7 -42 15 -33 39 -103 3
-143 -75 -14 -26 -31 -45 -41 -45 -9 0 -20 -5 -24 -11 -4 -6 -16 -16 -28 -22
-11 -6 -52 -53 -90 -104 -171 -226 -293 -396 -309 -427 -9 -19 -30 -52 -46
-74 -16 -22 -29 -48 -29 -58 0 -10 -9 -23 -20 -29 -11 -6 -31 -22 -46 -35 -15
-14 -30 -23 -33 -19 -3 3 4 13 15 22 12 9 34 35 50 57 16 22 31 42 34 45 12
12 60 90 55 90 -14 0 -111 -101 -146 -151 -20 -31 -50 -64 -66 -74 -38 -25
-53 -47 -47 -67 3 -10 1 -34 -5 -53 -8 -30 -7 -34 4 -25 17 14 51 22 98 21 44
-1 51 -4 102 -49 36 -32 38 -37 42 -106 4 -63 2 -74 -16 -90 -12 -11 -21 -27
-21 -37 0 -12 -10 -21 -27 -25 -16 -4 -42 -18 -59 -31 -17 -12 -35 -23 -40
-23 -6 0 -25 -16 -44 -35 -18 -19 -48 -41 -67 -50 -18 -9 -33 -20 -33 -25 0
-6 -4 -10 -10 -10 -16 0 -134 -88 -184 -139 -29 -29 -75 -61 -108 -76 -37 -17
-63 -36 -72 -53 -23 -43 -52 -62 -97 -62 -22 0 -48 4 -57 9 -44 22 -72 22 -95
-2 -12 -13 -37 -29 -56 -35 -19 -7 -54 -23 -77 -37 -39 -23 -42 -28 -37 -58 7
-47 -13 -176 -31 -196 -9 -10 -19 -39 -22 -65 -5 -33 -14 -52 -29 -62 -43 -28
-477 -46 -560 -23 -22 6 -45 19 -52 28 -7 9 -13 13 -13 9 0 -4 -16 0 -35 8
-47 19 -72 18 -80 -5 -7 -24 -75 -71 -102 -71 -12 0 -30 -11 -41 -25 -11 -14
-25 -25 -31 -25 -6 0 -11 -4 -11 -10 0 -5 -15 -13 -32 -18 -31 -8 -30 -9 25
-15 49 -6 64 -4 90 12 45 27 151 58 227 66 40 4 122 0 215 -11 171 -19 254
-19 340 1 176 40 372 53 670 43 80 -2 895 20 965 26 30 3 181 13 335 21 502
28 713 43 928 67 l97 10 78 83 77 83 140 51 c77 29 183 76 235 105 116 64 126
69 320 144 85 34 190 77 234 97 67 30 115 56 294 155 213 119 320 168 422 194
68 18 90 30 464 254 141 84 286 178 323 208 38 31 89 71 115 90 26 20 50 43
53 53 5 17 73 61 94 61 13 0 74 41 79 53 2 4 11 7 20 7 10 0 23 9 30 20 7 11
19 20 28 20 9 0 31 9 48 19 17 11 63 32 101 47 39 15 90 41 115 58 41 27 53
30 125 30 87 1 148 -22 179 -65 14 -20 11 -29 -34 -118 -46 -91 -69 -146 -91
-218 -5 -18 -14 -35 -19 -38 -6 -4 -10 -15 -10 -26 0 -11 -10 -31 -23 -45 -21
-22 -25 -23 -37 -10 -17 22 -30 20 -30 -4 0 -31 -41 -81 -61 -75 -9 3 -22 -1
-29 -10 -15 -18 -71 -20 -89 -2 -14 12 -14 8 4 -35 3 -8 -13 -20 -41 -32 -25
-10 -58 -29 -72 -41 -28 -22 -215 -115 -233 -115 -6 0 -17 -7 -25 -15 -9 -8
-25 -15 -36 -15 -11 0 -30 -8 -43 -18 -12 -10 -42 -24 -66 -31 -24 -7 -57 -19
-74 -26 -38 -16 -90 -34 -135 -47 -19 -5 -52 -14 -72 -20 -20 -6 -54 -8 -75
-5 -57 10 -258 -23 -328 -53 -42 -18 -44 -20 -47 -67 l-3 -48 -85 -42 c-47
-23 -93 -42 -103 -42 -11 -1 -31 -7 -45 -15 -43 -23 -133 -62 -194 -86 -32
-12 -58 -29 -58 -36 0 -8 -6 -14 -13 -14 -7 0 -30 -9 -52 -20 -22 -11 -46 -20
-53 -20 -8 0 -47 -18 -86 -39 -92 -51 -167 -78 -238 -87 l-58 -6 0 36 c0 24
-5 36 -14 36 -8 0 -16 -3 -18 -7 -1 -5 -23 -21 -48 -38 -24 -16 -69 -55 -100
-85 -30 -30 -76 -74 -102 -96 -26 -23 -44 -44 -42 -47 3 -3 -16 -15 -42 -27
-27 -11 -55 -27 -64 -34 -8 -7 -27 -16 -43 -20 -15 -4 -51 -17 -80 -30 -60
-28 -144 -56 -165 -56 -9 0 -23 6 -31 14 -14 13 -16 12 -17 -9 -1 -18 2 -22
15 -18 12 5 13 3 5 -6 -6 -7 -27 -15 -45 -18 -19 -3 -54 -15 -79 -26 -25 -12
-48 -23 -53 -25 -4 -2 -4 4 0 14 5 14 3 16 -13 9 -10 -4 -31 -9 -45 -10 -14
-2 -34 -7 -45 -12 -10 -6 -33 -18 -51 -27 -41 -21 -50 -20 -28 4 30 33 9 34
-26 1 -17 -17 -36 -31 -42 -31 -5 0 1 9 14 20 28 22 6 28 -24 6 -15 -12 -16
-15 -2 -26 16 -13 66 -4 189 34 44 14 47 14 42 -1 -5 -13 -1 -15 30 -10 20 3
35 5 33 3 -2 -2 -65 -25 -139 -50 -110 -37 -173 -51 -344 -76 -116 -17 -212
-32 -214 -35 -3 -2 -18 3 -34 11 -16 8 -81 26 -144 39 -62 14 -132 34 -154 45
-22 11 -40 16 -40 10 0 -5 5 -10 11 -10 7 0 5 -10 -5 -25 -29 -44 -16 -65 39
-65 13 0 27 -4 30 -10 3 -5 45 -10 93 -11 138 -1 65 -19 -118 -30 -85 -5 -191
-13 -235 -19 -44 -5 -296 -14 -560 -20 -264 -5 -583 -14 -710 -20 -512 -23
-743 -29 -1005 -29 -151 0 -392 -2 -535 -5 -852 -19 -963 -19 -1078 4 -59 11
-112 18 -117 15 -10 -6 4 -63 20 -79 18 -18 10 -28 -17 -21 -41 10 -61 33 -66
74 -2 20 -4 3 -5 -36 -2 -84 9 -105 73 -133 105 -45 88 -45 1735 -45 855 0
1606 4 1668 8 l112 7 0 -37 c1 -79 62 -163 119 -163 14 0 95 20 179 45 136 39
283 75 311 75 13 0 -9 -83 -26 -93 -7 -4 -13 -16 -13 -27 0 -10 -5 -20 -12
-22 -7 -3 -15 -39 -19 -90 -5 -58 -14 -96 -28 -119 -12 -19 -21 -44 -21 -56 0
-12 -4 -24 -9 -27 -33 -21 -3136 -69 -3690 -58 -108 2 -243 22 -325 48 -19 6
-18 5 2 -30 12 -21 22 -48 22 -62 0 -65 90 -147 153 -140 18 2 41 0 52 -4 27
-10 259 -23 421 -24 110 -1 133 -4 148 -18 10 -10 20 -18 24 -18 4 -1 281 -2
616 -4 355 -2 611 -7 613 -12 4 -14 -7 -26 -72 -75 -33 -25 -112 -86 -175
-135 -63 -50 -134 -102 -158 -116 l-43 -25 51 -7 c28 -4 48 -11 45 -16 -4 -6
11 -10 34 -10 23 0 41 -2 41 -4 0 -3 -9 -20 -20 -39 -18 -31 -21 -53 -21 -178
-1 -84 3 -156 10 -172 6 -16 11 -32 11 -36 0 -4 -39 -41 -87 -82 -48 -41 -131
-112 -183 -159 -84 -76 -103 -88 -155 -100 l-60 -14 50 -6 c60 -8 30 -28 295
200 48 41 116 99 151 129 35 30 71 61 79 68 38 34 91 78 155 130 129 105 215
185 209 194 -3 5 -23 -5 -45 -23 -21 -17 -41 -29 -43 -27 -3 2 19 83 48 179
l52 175 83 3 82 3 -7 -28 c-3 -15 -12 -53 -20 -83 -7 -30 -11 -56 -9 -58 6 -7
65 32 65 43 0 5 4 4 9 -3 6 -10 11 -9 22 4 12 15 12 17 0 9 -10 -5 -12 -4 -7
3 4 7 16 12 27 12 11 0 17 5 14 10 -6 9 8 14 28 11 5 -1 6 3 2 9 -3 5 2 10 12
10 11 0 41 20 68 45 51 47 156 107 255 147 30 13 57 26 60 29 7 8 88 33 170
53 136 33 456 67 418 45 -10 -5 -18 -18 -18 -28 0 -16 12 -19 88 -25 136 -10
738 -9 685 1 -32 6 -29 23 5 23 l27 1 -32 14 c-19 8 -35 23 -38 37 -27 111
-37 190 -46 357 -6 106 -8 213 -4 237 5 37 10 44 38 53 44 13 148 34 152 29 2
-2 5 -154 7 -339 2 -267 0 -339 -10 -352 -11 -13 -11 -20 3 -41 l17 -26 262 2
c211 2 235 3 126 8 l-135 5 119 8 c82 6 134 4 171 -4 41 -9 178 -9 607 1 1234
27 1497 36 1570 51 l46 10 -14 36 c-22 51 -18 679 4 688 23 9 140 -16 154 -32
21 -26 8 -566 -17 -653 -2 -8 8 -24 23 -35 26 -19 41 -20 436 -18 405 2 447 6
418 35 -7 7 -12 16 -12 20 0 12 549 10 655 -2 237 -28 504 -123 660 -235 64
-47 81 -71 64 -91 -7 -9 -16 -11 -23 -6 -6 5 -24 12 -41 16 -16 4 -53 19 -82
33 -92 44 -81 18 12 -30 50 -26 108 -63 130 -82 22 -19 44 -35 48 -35 5 0 50
-39 101 -87 51 -49 112 -101 136 -118 24 -16 75 -58 112 -93 37 -34 72 -62 77
-62 5 0 41 -28 79 -62 39 -35 105 -88 147 -118 42 -30 97 -70 122 -88 46 -34
124 -72 148 -72 13 0 92 -68 84 -73 -21 -14 -83 -31 -126 -34 -60 -5 -93 9
-93 40 0 16 -40 57 -137 142 -74 66 -145 127 -157 135 -12 8 -66 51 -120 95
-54 44 -115 92 -134 108 -20 15 -39 31 -42 36 -3 4 -16 14 -30 21 -30 16 -143
101 -190 145 -38 34 -141 102 -205 133 -63 32 -182 82 -194 82 -5 0 -45 11
-88 25 -119 38 -259 55 -408 51 -71 -3 -211 -6 -310 -7 -138 -2 -97 -4 175 -9
320 -6 363 -9 440 -29 168 -43 312 -103 425 -178 118 -77 120 -79 105 -98 -18
-22 -5 -250 17 -284 15 -23 17 -23 136 -18 122 6 136 12 137 48 0 26 12 30 39
12 74 -47 433 -348 475 -398 48 -56 49 -60 47 -113 -2 -42 -9 -63 -27 -84 -47
-57 -55 -157 -18 -231 38 -74 103 -120 190 -131 47 -7 57 -4 143 40 104 53
133 86 152 170 14 64 6 104 -21 104 -21 0 -21 -8 -3 -73 9 -33 -25 -124 -53
-142 -26 -17 -27 -17 -20 0 23 60 26 109 11 167 -18 73 -18 73 0 58 9 -7 18
-10 22 -7 3 4 -6 11 -20 18 -25 11 -87 88 -87 108 0 5 8 14 17 20 14 8 11 11
-20 16 -21 4 -51 5 -67 1 -22 -4 -30 -2 -30 9 0 11 11 15 40 15 22 0 40 5 40
10 0 6 7 10 16 10 8 0 12 -4 9 -10 -4 -6 7 -10 25 -10 19 0 33 6 37 16 4 12
14 14 37 10 21 -4 39 -1 51 8 20 15 19 15 -6 42 -21 21 -40 28 -90 33 -73 8
-26 -29 -695 531 -82 68 -150 124 -150 125 -1 0 -5 19 -9 41 l-6 41 48 7 c93
12 98 45 11 71 -35 10 -73 33 -113 66 -67 58 -75 68 -48 71 10 0 -2 4 -27 8
-39 6 -41 7 -12 8 25 2 35 8 43 29 5 15 8 37 5 48 -5 20 -9 21 -271 17 -183
-2 -265 0 -265 7 0 7 55 11 163 12 89 1 240 4 335 8 l174 6 -212 204 -211 204
-229 -7 -228 -7 -68 51 c-83 64 -319 180 -434 214 -91 27 -253 56 -310 55 -32
0 -42 -9 -113 -92 l-77 -92 162 -6 c90 -4 183 -11 208 -17 107 -26 290 -97
290 -112 0 -7 -393 -19 -668 -21 -112 -1 -124 -3 -140 -23 -36 -44 -50 -51
-72 -31 -26 24 -26 30 12 79 81 104 121 144 149 150 33 6 89 76 89 111 0 23
22 58 73 112 l30 32 27 -21 c16 -11 34 -18 41 -16 7 2 -10 19 -39 38 l-51 33
44 56 c24 31 87 108 139 171 52 63 93 116 92 118 -2 1 -18 -4 -36 -12 -18 -7
-27 -15 -20 -18 12 -4 -27 -57 -147 -199 -62 -72 -80 -86 -96 -70 -13 13 -1
30 107 160 48 57 84 101 79 99 -4 -2 -36 -14 -70 -27 -35 -13 -63 -27 -63 -31
0 -18 -115 -145 -131 -145 -10 0 -39 -20 -64 -45 l-44 -44 -103 29 c-57 16
-114 35 -128 42 l-25 14 25 -2 c44 -2 58 1 74 17 9 8 21 12 27 8 8 -5 9 -3 4
6 -6 10 -3 12 14 7 19 -5 20 -3 9 10 -12 15 -10 15 12 3 22 -12 24 -12 12 2
-10 13 3 21 100 58 62 23 142 53 178 67 36 14 119 45 185 68 220 79 542 199
951 354 161 61 296 111 301 111 6 0 24 7 42 16 17 9 39 13 47 10 8 -3 13 -2
10 3 -7 11 68 33 90 25 13 -4 15 -3 6 3 -16 12 51 34 76 26 14 -4 14 -3 3 5
-11 8 -1 14 45 28 32 9 68 23 79 30 11 7 44 16 73 20 33 4 49 10 41 15 -9 5 0
13 27 24 21 10 46 21 55 26 31 15 87 21 93 10 5 -8 15 -7 34 3 15 7 32 12 37
10 6 -3 168 54 360 125 l350 129 -3 34 c-2 33 -1 34 65 57 136 48 380 153 444
191 59 35 139 108 139 128 0 4 -13 45 -28 93 l-28 85 -14 -30 c-35 -72 -223
-186 -460 -279 -63 -25 -185 -71 -270 -102 -85 -31 -191 -70 -235 -86 -137
-51 -187 -69 -290 -105 -55 -19 -109 -39 -120 -44 -11 -5 -105 -38 -210 -74
-104 -36 -282 -98 -395 -139 -113 -41 -261 -93 -330 -117 -166 -57 -444 -160
-605 -225 -332 -133 -895 -341 -1275 -469 l-155 -53 -105 18 c-261 46 -512 76
-875 105 -115 9 -211 17 -212 18 -4 4 584 217 907 330 171 59 333 119 615 224
61 23 175 66 255 96 80 29 199 75 265 101 229 89 882 324 1740 624 110 38 274
99 365 134 775 301 863 337 995 402 116 56 215 132 215 165 0 10 -16 60 -35
110 -19 50 -35 102 -35 114 0 14 -12 29 -32 41 -73 44 -188 19 -768 -170 -74
-24 -205 -64 -290 -90 -150 -45 -405 -142 -503 -192 -55 -27 -97 -44 -97 -39
0 7 200 117 290 160 50 24 88 45 85 48 -3 2 1 5 8 5 16 1 81 26 87 34 11 14
98 47 140 53 44 6 135 35 114 36 -19 0 -55 42 -50 56 3 8 -1 14 -9 14 -17 0
-19 13 -6 38 15 30 20 102 7 102 -7 0 -18 22 -25 48 -14 56 -80 163 -115 185
-13 9 -44 37 -69 64 -25 26 -74 68 -108 93 -34 25 -81 62 -104 83 -23 20 -51
37 -62 37 -11 0 -28 9 -38 20 -10 11 -23 20 -28 20 -6 0 -18 7 -27 15 -12 11
-165 59 -174 55 -1 -1 -15 -7 -31 -14z m1715 -665 c0 -5 -17 -7 -37 -4 -52 7
-54 13 -5 13 23 0 42 -4 42 -9z m-53 -15 c1 -1 -27 -6 -62 -12 -71 -10 -88 -2
-27 14 30 8 77 6 89 -2z m-112 -42 c15 -14 31 -22 34 -17 8 11 61 13 61 2 0
-5 -7 -9 -15 -9 -8 0 -15 -4 -15 -9 0 -5 -9 -7 -20 -4 -14 4 -20 0 -20 -10 0
-18 -34 -32 -69 -28 -13 2 -21 -1 -17 -7 3 -6 -16 -15 -44 -22 -28 -7 -50 -18
-50 -25 0 -16 -30 -28 -30 -12 -1 7 -8 0 -16 -16 -8 -15 -12 -32 -9 -37 6 -10
1 -12 -27 -14 -7 -1 -18 -8 -25 -16 -11 -13 -12 -12 -13 5 0 16 -2 17 -9 5 -6
-8 -7 -18 -4 -24 3 -5 1 -6 -4 -3 -6 4 -19 -5 -29 -18 -10 -14 -29 -25 -41
-25 -12 0 -23 -4 -25 -8 -3 -7 -54 -30 -188 -82 -25 -10 -74 -30 -110 -45
-105 -43 -244 -95 -255 -95 -5 1 1 7 15 15 14 8 22 14 19 15 -3 0 -147 -47
-320 -105 -173 -57 -305 -104 -294 -105 11 0 89 23 173 51 84 27 158 49 164
47 21 -7 -350 -120 -374 -113 -14 4 -18 3 -10 -2 8 -6 -16 -17 -70 -33 -46
-13 -132 -42 -193 -66 -60 -23 -191 -72 -290 -107 -99 -36 -209 -76 -245 -90
-36 -14 -96 -37 -135 -51 -38 -15 -86 -33 -105 -41 -82 -33 -221 -85 -305
-113 -233 -79 -554 -195 -690 -250 -82 -33 -217 -83 -300 -111 -82 -29 -247
-90 -365 -136 -118 -46 -298 -113 -400 -150 -102 -36 -195 -70 -208 -75 -42
-18 -59 -11 -24 10 18 11 36 19 40 18 9 -2 74 28 85 39 5 4 12 8 15 8 4 1 25
10 47 22 97 50 375 165 1110 456 406 161 598 227 665 227 16 0 32 5 35 11 4 6
13 8 21 5 8 -3 57 15 109 39 52 25 97 45 99 45 3 0 33 13 68 29 35 16 77 33
93 37 17 4 72 27 123 51 52 23 96 43 99 43 2 0 52 23 110 50 58 28 107 50 109
50 2 0 27 11 56 24 29 13 94 40 143 59 50 19 129 53 176 76 48 22 92 41 98 41
6 0 11 5 11 10 0 6 5 10 11 10 14 0 85 50 128 90 79 74 642 299 682 274 7 -4
9 -3 6 3 -6 10 29 22 80 26 12 1 19 4 17 7 -6 5 80 31 109 33 9 1 17 4 17 8 0
6 84 31 115 35 6 0 28 9 49 18 22 10 54 18 72 19 17 1 30 5 27 10 -2 4 5 7 16
7 11 0 51 11 88 25 37 14 73 23 80 21 7 -3 13 -1 13 4 0 7 14 14 41 19 3 0 19
-11 34 -25z m155 22 c0 -3 -4 -8 -10 -11 -5 -3 -10 -1 -10 4 0 6 5 11 10 11 6
0 10 -2 10 -4z m-1957 -63 c-21 -8 -16 -43 6 -43 10 0 24 -7 31 -15 9 -10 9
-15 1 -15 -6 0 -11 -3 -10 -7 2 -16 -14 -53 -22 -53 -5 0 -9 -7 -9 -15 0 -11
-6 -12 -22 -6 -13 4 -28 6 -34 4 -21 -7 -26 58 -7 86 10 14 16 34 15 43 -2 10
5 18 20 21 32 6 45 6 31 0z m-877 -68 c-11 -9 -29 -12 -39 -9 -15 5 -19 3 -14
-9 5 -12 -1 -15 -27 -12 -26 2 -44 -6 -80 -34 -26 -21 -56 -51 -67 -67 -26
-39 -24 -14 2 30 23 40 121 106 127 86 4 -10 6 -10 12 0 7 11 56 27 90 29 11
0 10 -3 -4 -14z m584 -84 c22 -9 20 -10 -15 -4 -55 8 -158 47 -163 61 -3 10
101 -23 178 -57z m-1541 -4 c-2 -1 -13 -9 -24 -17 -19 -14 -19 -14 -6 3 7 9
18 17 24 17 6 0 8 -1 6 -3z m-526 -309 c43 -31 32 -31 -20 -2 -60 34 -64 38
-33 29 14 -4 37 -16 53 -27z m3202 -16 c-6 -5 -46 -21 -90 -35 -44 -14 -89
-29 -99 -33 -12 -5 -17 -4 -13 3 4 6 28 16 54 23 27 7 53 16 58 19 12 7 76 28
90 30 6 1 6 -2 0 -7z m-6722 -212 c-4 -15 -13 -20 -34 -18 -16 1 -29 3 -29 5
0 3 54 32 62 33 3 0 4 -9 1 -20z m3362 -10 c-3 -5 -11 -10 -16 -10 -6 0 -7 5
-4 10 3 6 11 10 16 10 6 0 7 -4 4 -10z m-55 -55 c-21 -25 -90 -12 -90 17 0 9
3 9 12 0 18 -18 65 -15 73 6 5 12 9 13 12 4 3 -7 -1 -19 -7 -27z m-820 -8 c0
-2 -10 -12 -21 -23 -22 -19 -22 -19 -10 4 10 18 31 31 31 19z m220 -45 c0 -9
3 -26 6 -38 5 -20 3 -20 -54 -10 -45 7 -67 6 -91 -4 -40 -16 -39 -29 0 -37 21
-4 37 -16 48 -35 9 -16 29 -32 46 -37 26 -7 30 -12 28 -41 -1 -37 -16 -50 -55
-50 -31 0 -35 15 -14 45 12 18 9 24 -40 68 l-53 48 6 -36 c5 -28 1 -40 -15
-55 -12 -11 -27 -20 -35 -20 -7 0 -17 -4 -23 -10 -5 -5 -43 -10 -84 -11 -79
-1 -140 -14 -140 -30 0 -5 -21 -9 -47 -9 -55 0 -123 -17 -123 -30 0 -5 -12 -3
-26 4 -26 14 -76 10 -54 -4 8 -5 7 -9 -5 -14 -10 -3 -15 -12 -11 -21 3 -8 0
-15 -7 -15 -29 0 -57 14 -62 30 -3 10 -34 37 -68 60 l-62 42 41 -7 c31 -5 76
2 170 25 106 26 135 30 162 22 37 -12 53 -8 94 20 32 22 60 24 52 3 -4 -10 0
-15 15 -15 13 0 21 6 21 16 0 12 4 14 13 7 6 -6 39 -13 73 -17 51 -6 65 -4 84
12 l24 19 -26 26 c-16 16 -43 29 -68 33 l-41 7 27 28 c30 31 78 38 129 19 21
-8 36 -6 70 9 23 10 46 24 49 30 10 16 46 -5 46 -27z m2937 -78 c-3 -3 -12 -4
-19 -1 -8 3 -5 6 6 6 11 1 17 -2 13 -5z m-4713 -61 c5 -24 23 -36 117 -83 62
-30 139 -75 172 -98 l59 -44 117 27 c139 33 252 55 306 62 33 4 38 3 28 -8 -7
-7 -13 -28 -13 -46 0 -26 -4 -33 -19 -33 -11 0 -23 5 -26 10 -3 6 -15 10 -26
10 -11 0 -33 7 -49 15 -29 15 -95 10 -84 -6 3 -5 -5 -9 -18 -9 -26 -1 -58 -22
-58 -39 0 -6 -4 -11 -10 -11 -5 0 -10 6 -10 14 0 24 -19 29 -63 18 -23 -6 -68
-14 -100 -17 -31 -4 -55 -10 -53 -14 3 -4 -10 -7 -28 -7 -19 0 -51 -5 -72 -11
-91 -26 -155 -43 -285 -73 -52 -12 -105 -26 -119 -30 -25 -8 -25 -8 -2 -9 13
-1 21 -5 17 -10 -3 -6 -17 -6 -35 -1 -16 5 -44 5 -62 0 -49 -12 -220 -21 -216
-11 4 10 119 107 167 141 19 13 53 43 76 66 24 23 61 52 84 63 26 14 50 37 66
66 52 88 126 124 139 68z m1883 5 c-3 -8 -6 -5 -6 6 -1 11 2 17 5 13 3 -3 4
-12 1 -19z m2730 16 c-3 -3 -12 -4 -19 -1 -8 3 -5 6 6 6 11 1 17 -2 13 -5z
m-104 -41 c-7 -2 -21 -2 -30 0 -10 3 -4 5 12 5 17 0 24 -2 18 -5z m-113 -33
c-20 -13 -33 -13 -25 0 3 6 14 10 23 10 15 0 15 -2 2 -10z m-380 -4 c0 -2 -7
-7 -16 -10 -8 -3 -12 -2 -9 4 6 10 25 14 25 6z m-65 -32 c-40 -18 -65 -19 -42
-1 10 6 30 13 45 13 l27 1 -30 -13z m335 -8 c-6 -9 -19 -12 -28 -8 -17 6 -14
7 37 21 2 1 -2 -5 -9 -13z m-2270 -36 c-117 -44 -128 -47 -110 -25 7 8 20 15
29 15 9 0 48 11 86 25 113 40 109 28 -5 -15z m2213 15 c-3 -9 -8 -14 -10 -11
-3 2 -25 -3 -49 -11 -25 -8 -47 -13 -49 -11 -3 3 21 14 53 25 31 11 58 21 59
22 1 0 0 -6 -4 -14z m-358 -5 c-27 -12 -43 -12 -25 0 8 5 22 9 30 9 10 0 8 -3
-5 -9z m-50 -20 c3 -5 -1 -10 -10 -10 -9 0 -13 5 -10 10 3 6 8 10 10 10 2 0 7
-4 10 -10z m-1625 -31 c-31 -14 -58 -19 -86 -16 -24 2 -51 -1 -65 -9 -13 -7
-31 -13 -39 -14 -8 0 3 9 25 20 23 12 56 19 85 19 26 -1 56 3 66 9 10 6 28 11
39 11 12 1 2 -8 -25 -20z m1865 -9 c-9 -15 -90 -50 -115 -50 -11 0 -23 -7 -26
-15 -3 -8 -16 -15 -27 -15 -12 -1 -34 -1 -49 -1 -16 -1 -26 -5 -23 -9 3 -5 2
-15 -1 -24 -5 -12 -10 -13 -25 -6 -13 8 -29 6 -54 -4 -37 -16 -37 -16 -57 -16
-9 0 -8 -4 2 -10 12 -7 8 -11 -18 -16 -19 -4 -36 -12 -39 -19 -2 -7 -31 -25
-63 -39 -33 -15 -62 -31 -65 -37 -4 -5 -11 -6 -17 -3 -6 4 -13 3 -17 -2 -8
-12 -37 -29 -88 -53 -24 -11 -43 -24 -43 -28 0 -5 -12 -10 -27 -11 -16 -1 -40
-11 -55 -22 -15 -11 -39 -20 -53 -20 -14 0 -25 -5 -25 -11 0 -6 -11 -8 -29 -4
-18 4 -50 -2 -87 -15 -65 -23 -62 -22 -121 -39 -24 -6 -43 -15 -43 -20 0 -4
-10 -7 -22 -7 -13 1 -22 -4 -21 -11 2 -7 -4 -13 -12 -13 -8 0 -15 4 -15 10 0
5 -13 -4 -29 -20 -16 -17 -39 -30 -52 -30 -55 0 -149 -48 -149 -76 0 -11 -9
-15 -27 -14 -16 1 -32 1 -38 0 -5 -2 -17 -4 -25 -4 -8 -1 -14 -9 -14 -17 1
-16 -1 -17 -46 -22 -46 -5 -72 -18 -66 -33 4 -12 2 -12 -15 -4 -26 14 -70 5
-104 -22 -15 -12 -40 -21 -56 -22 -20 -1 -29 -6 -29 -18 0 -14 -7 -16 -35 -11
-28 4 -35 2 -35 -10 0 -10 -6 -14 -14 -11 -7 3 -20 -2 -28 -10 -9 -8 -24 -12
-37 -9 -11 3 -27 0 -35 -6 -8 -7 -39 -13 -70 -14 -34 -1 -56 -6 -56 -14 0 -6
-16 -11 -37 -11 -87 1 -208 -5 -213 -11 -3 -4 -29 -11 -58 -17 -71 -14 -54 -1
38 29 81 27 306 105 330 114 8 4 17 7 20 8 3 1 16 6 30 12 14 6 88 34 165 62
157 58 378 144 442 172 24 11 45 19 48 19 13 0 464 164 564 205 110 45 269
102 341 123 19 6 98 32 175 60 77 27 146 47 153 45 6 -3 12 1 12 7 0 7 8 9 19
5 11 -3 21 0 24 9 3 8 23 17 44 21 21 3 49 13 63 20 30 17 44 19 35 5z m-4916
-191 c6 -17 29 -58 51 -91 39 -56 40 -60 21 -65 -12 -3 -21 -9 -21 -13 0 -4
-11 -5 -24 -3 -13 3 -36 -2 -52 -10 -34 -18 -83 -67 -66 -67 7 0 12 -4 12 -9
0 -6 -8 -9 -17 -9 -10 1 -52 -6 -93 -16 -74 -17 -107 -16 -230 11 -23 6 -24 6
-4 12 11 3 47 30 80 59 53 48 309 230 326 231 3 1 11 -13 17 -30z m2591 -43
c0 -2 -7 -7 -16 -10 -8 -3 -12 -2 -9 4 6 10 25 14 25 6z m1987 -42 c-3 -3 -12
-4 -19 -1 -8 3 -5 6 6 6 11 1 17 -2 13 -5z m-4392 -14 c-3 -5 -12 -10 -18 -10
-7 0 -6 4 3 10 19 12 23 12 15 0z m-40 -20 c-3 -5 -12 -10 -18 -10 -7 0 -6 4
3 10 19 12 23 12 15 0z m4325 -3 c0 -4 -68 -31 -313 -122 -98 -36 -198 -75
-223 -85 -25 -11 -51 -20 -57 -20 -30 2 139 76 273 120 30 10 89 30 130 46
165 60 190 68 190 61z m2417 -3 c-3 -3 -12 -4 -19 -1 -8 3 -5 6 6 6 11 1 17
-2 13 -5z m-7068 -194 c20 -5 49 -12 65 -15 15 -3 26 -8 23 -11 -7 -8 -126 17
-133 27 -7 11 0 11 45 -1z m-402 -17 c-26 -2 -45 -8 -42 -14 7 -10 -28 -12
-62 -3 -46 13 -9 24 70 22 54 -1 66 -3 34 -5z m-159 -20 c-10 -2 -28 -2 -40 0
-13 2 -5 4 17 4 22 1 32 -1 23 -4z m4592 3 c0 -2 -7 -7 -16 -10 -8 -3 -12 -2
-9 4 6 10 25 14 25 6z m-4667 -13 c-7 -2 -21 -2 -30 0 -10 3 -4 5 12 5 17 0
24 -2 18 -5z m-86 -9 c-3 -3 -12 -4 -19 -1 -8 3 -5 6 6 6 11 1 17 -2 13 -5z
m-54 -11 c-7 -2 -21 -2 -30 0 -10 3 -4 5 12 5 17 0 24 -2 18 -5z m4522 -33 c3
-5 -1 -10 -9 -10 -9 0 -16 5 -16 10 0 6 4 10 9 10 6 0 13 -4 16 -10z m-727
-15 c-8 -9 -312 -131 -343 -139 -29 -7 -29 -7 -12 11 9 10 90 43 180 75 158
55 186 63 175 53z m801 1 c-7 -7 -364 -130 -506 -175 -81 -26 -126 -35 -135
-29 -10 8 -10 9 2 5 15 -4 122 30 305 98 55 20 114 42 132 48 18 5 30 14 27
18 -3 5 1 7 8 4 7 -3 42 4 78 14 64 19 98 25 89 17z m-3869 -26 c18 -12 2 -12
-25 0 -13 6 -15 9 -5 9 8 0 22 -4 30 -9z m2895 -130 c-3 -5 -14 -10 -23 -9
-14 0 -13 2 3 9 27 11 27 11 20 0z m-90 -30 c-3 -5 -14 -10 -23 -10 -15 0 -15
2 -2 10 20 13 33 13 25 0z m-1942 -27 c-7 -2 -19 -2 -25 0 -7 3 -2 5 12 5 14
0 19 -2 13 -5z m1884 1 c-3 -3 -12 -4 -19 -1 -8 3 -5 6 6 6 11 1 17 -2 13 -5z
m-47 -14 c-8 -5 -19 -10 -25 -10 -5 0 -3 5 5 10 8 5 20 10 25 10 6 0 3 -5 -5
-10z m497 -6 c-3 -3 -12 -4 -19 -1 -8 3 -5 6 6 6 11 1 17 -2 13 -5z m-552 -14
c-27 -12 -43 -12 -25 0 8 5 22 9 30 9 10 0 8 -3 -5 -9z m502 -6 c-3 -3 -12 -4
-19 -1 -8 3 -5 6 6 6 11 1 17 -2 13 -5z m-117 -38 c0 -2 -7 -7 -16 -10 -8 -3
-12 -2 -9 4 6 10 25 14 25 6z m-475 -26 c-3 -5 -14 -10 -23 -9 -14 0 -13 2 3
9 27 11 27 11 20 0z m-236 -94 c-2 -2 -22 -6 -44 -10 -29 -5 -36 -4 -25 3 13
10 79 16 69 7z m-85 -24 c3 -5 -11 -14 -30 -21 -27 -10 -33 -16 -24 -26 9 -10
-5 -14 -72 -19 -46 -4 -96 -9 -113 -11 -16 -3 26 15 95 39 141 50 137 49 144
38z m746 -132 c85 -9 82 -9 -320 -14 -416 -4 -856 -39 -1168 -92 -135 -23
-136 -11 -2 14 195 37 521 78 760 95 89 7 666 4 730 -3z m673 -87 c-7 -2 -19
-2 -25 0 -7 3 -2 5 12 5 14 0 19 -2 13 -5z m104 -19 c-3 -3 -12 -4 -19 -1 -8
3 -5 6 6 6 11 1 17 -2 13 -5z m-3303 -93 c9 -14 -78 -23 -187 -19 -53 2 -97 4
-97 6 0 20 273 32 284 13z m4384 -34 l22 -23 -32 -42 -32 -41 -23 31 c-24 33
-24 31 17 80 19 23 22 23 48 -5z m-1705 -18 c284 -18 280 -14 71 -88 -98 -35
-258 -95 -354 -133 -327 -130 -660 -248 -701 -248 -16 0 -17 3 -8 18 6 10 21
23 33 28 19 8 21 18 24 99 l3 90 -54 64 c-30 35 -61 68 -70 73 -11 6 -40 -1
-89 -19 l-73 -28 -3 -98 -3 -98 38 -47 c21 -26 43 -52 48 -58 45 -52 46 -54
28 -61 -10 -3 -36 -14 -58 -23 -56 -25 -202 -70 -225 -70 -20 0 -38 32 -65
115 -8 22 -31 90 -53 150 -24 66 -41 135 -43 169 l-4 58 80 29 c83 30 290 59
560 78 180 12 724 13 918 0z m-2658 -8 c-6 -5 -152 -11 -325 -14 -333 -5 -362
-2 -90 12 240 12 426 13 415 2z m3390 -101 c3 -5 1 -10 -4 -10 -6 0 -11 5 -11
10 0 6 2 10 4 10 3 0 8 -4 11 -10z m-2513 -65 c4 -27 12 -117 18 -199 6 -83
13 -179 17 -212 l6 -62 -32 -7 c-18 -4 -59 -4 -92 0 l-59 7 -1 46 c-5 214 -5
453 0 456 3 3 27 7 51 11 25 4 47 9 50 11 2 3 11 3 19 2 11 -2 18 -20 23 -53z
m2424 28 c-1 -2 -104 -41 -227 -88 -123 -46 -217 -85 -209 -85 38 -2 517 1
535 3 19 2 20 -3 17 -73 -2 -41 -4 -75 -5 -76 -1 -1 -226 -4 -499 -8 -273 -3
-508 -10 -522 -16 -18 -6 -28 -5 -36 6 -8 9 -9 14 -2 14 6 0 12 -4 14 -9 2 -4
12 -5 23 0 l20 8 -20 1 c-16 1 -14 4 10 14 22 10 34 10 44 2 11 -8 13 -8 7 2
-4 7 0 14 11 18 25 8 162 62 333 130 242 96 433 161 472 160 20 0 36 -2 34 -3z
m-2236 -50 c0 -18 -33 -30 -38 -15 -2 7 -10 12 -18 12 -8 0 -14 5 -14 10 0 6
6 10 14 10 8 0 17 8 21 18 6 16 7 16 21 -2 8 -11 14 -26 14 -33z m496 -18 c-7
-19 -47 -17 -54 3 -5 15 39 33 52 22 5 -5 6 -16 2 -25z m144 -30 c0 -8 -7 -15
-15 -15 -8 0 -15 7 -15 15 0 8 7 15 15 15 8 0 15 -7 15 -15z m2447 -29 c2 -2
-4 -15 -15 -28 -11 -12 -44 -51 -72 -85 -28 -35 -57 -63 -64 -63 -7 0 -21 9
-31 20 -20 22 -18 24 68 122 37 42 46 47 76 43 18 -2 36 -6 38 -9z m-2672 -45
c7 -12 -12 -24 -25 -16 -11 7 -4 25 10 25 5 0 11 -4 15 -9z m2425 0 c0 -14
-26 -32 -34 -23 -4 4 -36 -24 -70 -62 l-62 -69 -47 7 -47 7 0 68 c0 37 3 71 7
74 10 10 253 8 253 -2z m-1570 -191 c-8 -5 -19 -10 -25 -10 -5 0 -3 5 5 10 8
5 20 10 25 10 6 0 3 -5 -5 -10z m-70 -24 c0 -2 -53 -23 -117 -46 -65 -24 -122
-47 -128 -52 -6 -7 19 -8 70 -4 44 3 280 8 525 12 442 6 445 6 457 -15 7 -11
9 -22 5 -24 -4 -3 -276 -8 -604 -12 l-598 -7 -152 -58 c-84 -32 -154 -56 -156
-55 -2 2 4 14 13 28 12 18 47 35 138 67 67 24 128 45 136 48 9 3 12 1 7 -6 -4
-7 -5 -12 -2 -12 10 0 351 122 366 131 15 9 40 12 40 5z m2926 -83 c29 -21 54
-41 54 -45 0 -5 -64 -8 -142 -8 -79 0 -345 -5 -592 -10 -247 -5 -451 -9 -452
-7 -2 1 12 20 31 42 l33 40 358 11 c198 6 426 11 507 12 l149 2 54 -37z m544
-35 c0 -4 -38 -8 -83 -8 -69 0 -87 3 -101 19 -16 17 -15 19 15 25 17 3 45 6
61 6 17 0 31 6 35 16 5 12 12 9 39 -17 19 -18 34 -37 34 -41z m-2323 28 c1 -1
0 -19 -4 -39 -6 -37 -6 -37 -53 -37 -44 0 -50 3 -69 36 -12 19 -21 39 -21 43
0 7 139 3 147 -3z m1880 -72 c-3 -3 -12 -4 -19 -1 -8 3 -5 6 6 6 11 1 17 -2
13 -5z m-487 -15 c-335 -11 -399 -15 -407 -22 -3 -4 38 -8 93 -9 l99 -1 -115
-7 c-132 -8 -586 -12 -579 -5 3 2 108 7 234 10 126 3 231 8 234 11 6 6 -74 7
-259 4 -85 -1 -151 2 -147 6 10 11 390 20 797 21 l295 0 -245 -8z m-863 -25
c-3 -3 -12 -4 -19 -1 -8 3 -5 6 6 6 11 1 17 -2 13 -5z m-2687 -29 c0 -8 -7
-15 -15 -15 -8 0 -15 7 -15 15 0 8 7 15 15 15 8 0 15 -7 15 -15z m261 -29
c-10 -12 -7 -15 16 -19 15 -2 -12 -4 -62 -5 l-90 0 64 18 c35 11 66 22 69 25
12 11 14 -5 3 -19z m1287 -3 c-27 -2 -69 -2 -95 0 -27 2 -5 3 47 3 52 0 74 -1
48 -3z m-988 -13 c-37 -12 -112 -12 -105 0 3 6 34 10 68 9 46 -1 56 -3 37 -9z
m-827 -7 c-7 -2 -19 -2 -25 0 -7 3 -2 5 12 5 14 0 19 -2 13 -5z m127 -3 c0 -5
-16 -10 -35 -10 -19 0 -35 5 -35 10 0 6 16 10 35 10 19 0 35 -4 35 -10z m4829
-249 c48 -45 80 -81 73 -85 -10 -6 -172 139 -172 155 0 18 17 6 99 -70z
m-7029 -39 c0 -10 -90 -75 -96 -69 -2 2 1 18 7 35 10 30 17 33 77 41 6 0 12
-3 12 -7z m-547 -205 c-21 -59 -29 -74 -39 -66 -9 7 -10 16 -4 27 5 10 11 29
14 43 6 26 45 83 52 76 2 -2 -8 -38 -23 -80z m8495 -875 c105 -75 88 -261 -28
-292 -48 -13 -85 -5 -128 27 -52 39 -72 80 -72 144 0 62 26 113 70 137 36 19
120 10 158 -16z"/>
<path d="M11165 5760 c-3 -6 1 -7 9 -4 9 3 16 1 16 -6 0 -6 5 -8 11 -4 8 4 7
9 -2 15 -18 11 -26 11 -34 -1z"/>
<path d="M10548 5523 c19 -7 -42 -46 -98 -62 -62 -18 -244 -93 -329 -136 -78
-39 -134 -48 -110 -18 8 9 -3 4 -23 -11 -56 -42 -47 -92 13 -66 22 10 22 10 2
6 -36 -7 -37 12 -1 19 48 10 561 227 586 247 21 18 13 28 -20 27 -18 0 -27 -3
-20 -6z"/>
<path d="M10621 5506 c-26 -28 -18 -35 13 -11 10 7 16 19 14 25 -2 6 -14 0
-27 -14z"/>
<path d="M10300 5460 c-8 -5 -10 -10 -5 -10 6 0 17 5 25 10 8 5 11 10 5 10 -5
0 -17 -5 -25 -10z"/>
<path d="M10525 5440 c-3 -5 -2 -10 4 -10 5 0 13 5 16 10 3 6 2 10 -4 10 -5 0
-13 -4 -16 -10z"/>
<path d="M10450 5410 c-8 -5 -10 -10 -5 -10 6 0 17 5 25 10 8 5 11 10 5 10 -5
0 -17 -5 -25 -10z"/>
<path d="M10260 5330 c-9 -6 -10 -10 -3 -10 6 0 15 5 18 10 8 12 4 12 -15 0z"/>
<path d="M10045 5240 c-3 -6 1 -7 9 -4 18 7 21 14 7 14 -6 0 -13 -4 -16 -10z"/>
<path d="M9432 5618 c5 -15 28 -23 28 -10 0 5 -7 13 -16 16 -10 4 -14 1 -12
-6z"/>
<path d="M6068 4899 c-26 -14 -22 -25 14 -40 24 -10 33 -10 36 -1 2 7 12 12
22 12 10 0 22 5 25 10 4 6 -8 10 -27 10 -19 0 -38 4 -43 9 -6 6 -17 6 -27 0z"/>
<path d="M6340 2700 c-9 -6 -10 -10 -3 -10 6 0 15 5 18 10 8 12 4 12 -15 0z"/>
<path d="M9415 6360 c-3 -5 -1 -10 4 -10 6 0 11 5 11 10 0 6 -2 10 -4 10 -3 0
-8 -4 -11 -10z"/>
<path d="M9447 6310 c-3 -9 10 -29 34 -50 38 -34 40 -37 40 -97 1 -64 13 -84
22 -37 10 56 -5 104 -48 152 -30 33 -43 42 -48 32z"/>
<path d="M9149 6212 c11 -21 41 -48 41 -38 0 4 -7 18 -16 31 -19 29 -40 34
-25 7z"/>
<path d="M9358 6185 c-20 -21 36 -85 75 -85 16 0 14 6 -19 43 -41 46 -47 50
-56 42z"/>
<path d="M9050 6118 c0 -27 40 -100 58 -106 14 -4 17 34 2 43 -5 3 -10 14 -10
23 -1 17 -33 62 -44 62 -3 0 -6 -10 -6 -22z"/>
<path d="M10663 5799 c-18 -5 -35 -15 -39 -21 -5 -8 -1 -9 12 -4 10 4 31 10
47 13 15 3 30 10 33 14 6 11 -11 10 -53 -2z"/>
<path d="M10747 5799 c8 -8 16 -8 30 0 16 9 14 10 -11 11 -22 0 -27 -3 -19
-11z"/>
<path d="M10574 5749 c-20 -22 -10 -24 25 -5 18 10 20 14 8 19 -8 3 -23 -3
-33 -14z"/>
<path d="M6917 5354 c-4 -4 -7 -19 -6 -33 l0 -26 10 24 c10 26 8 47 -4 35z"/>
<path d="M6747 5254 c-15 -13 -39 -24 -53 -24 -23 0 -31 -21 -9 -22 6 0 22 -9
37 -19 26 -19 26 -19 21 0 -3 11 5 33 18 50 29 39 22 46 -14 15z"/>
<path d="M6656 5157 c3 -10 9 -15 12 -12 3 3 0 11 -7 18 -10 9 -11 8 -5 -6z"/>
<path d="M986 4501 c-3 -4 1 -17 9 -27 14 -18 14 -18 15 9 0 26 -13 36 -24 18z"/>
<path d="M955 4480 c3 -5 11 -10 16 -10 6 0 7 5 4 10 -3 6 -11 10 -16 10 -6 0
-7 -4 -4 -10z"/>
<path d="M970 4430 c0 -5 5 -10 11 -10 5 0 7 5 4 10 -3 6 -8 10 -11 10 -2 0
-4 -4 -4 -10z"/>
<path d="M10408 4213 c7 -3 16 -2 19 1 4 3 -2 6 -13 5 -11 0 -14 -3 -6 -6z"/>
<path d="M9806 3973 c-6 -14 -5 -15 5 -6 7 7 10 15 7 18 -3 3 -9 -2 -12 -12z"/>
<path d="M5440 3750 c-33 -5 -37 -7 -16 -8 58 -3 17 -10 -184 -32 -113 -11
-241 -28 -285 -35 -103 -18 -537 -49 -855 -60 -63 -3 -127 -7 -142 -9 -20 -4
-28 -1 -28 9 0 8 -7 15 -15 15 -8 0 -15 -4 -15 -8 0 -9 -155 -6 -170 3 -6 3
-10 1 -10 -5 0 -7 -6 -10 -14 -7 -8 3 -17 1 -20 -6 -4 -7 -8 -8 -11 -2 -7 14
-684 12 -810 -3 -55 -6 -111 -14 -125 -17 -63 -13 -409 -53 -735 -85 -121 -12
-515 -30 -647 -29 -59 0 -189 -6 -290 -15 -101 -8 -290 -20 -422 -26 -131 -6
-261 -15 -290 -21 -63 -11 -106 -28 -106 -41 0 -6 8 -7 18 -3 70 30 109 35
324 45 128 5 413 14 633 20 522 13 637 23 1455 120 201 24 504 26 735 5 207
-19 687 -53 883 -62 l154 -8 25 35 c15 19 28 37 29 39 2 2 9 -1 16 -6 7 -6 47
-14 88 -17 152 -15 249 -49 288 -102 19 -27 20 -27 26 -7 13 40 114 94 320
172 104 39 175 82 225 135 14 14 23 25 20 24 -2 0 -24 -4 -49 -8z m-4097 -297
c-7 -2 -19 -2 -25 0 -7 3 -2 5 12 5 14 0 19 -2 13 -5z"/>
<path d="M1727 3725 c3 -8 9 -12 14 -9 12 7 11 11 -5 17 -10 4 -13 1 -9 -8z"/>
<path d="M1280 3704 c0 -3 10 -28 22 -56 16 -37 18 -52 9 -57 -7 -5 8 -14 40
-24 78 -26 84 -21 31 26 -28 23 -59 59 -71 80 -21 34 -31 45 -31 31z"/>
<path d="M9050 3690 c-8 -5 -10 -10 -5 -10 6 0 17 5 25 10 8 5 11 10 5 10 -5
0 -17 -5 -25 -10z"/>
<path d="M4343 3663 c9 -2 25 -2 35 0 9 3 1 5 -18 5 -19 0 -27 -2 -17 -5z"/>
<path d="M4128 3653 c12 -2 32 -2 45 0 12 2 2 4 -23 4 -25 0 -35 -2 -22 -4z"/>
<path d="M8860 3620 c-8 -5 -10 -10 -5 -10 6 0 17 5 25 10 8 5 11 10 5 10 -5
0 -17 -5 -25 -10z"/>
<path d="M908 3583 c6 -2 18 -2 25 0 6 3 1 5 -13 5 -14 0 -19 -2 -12 -5z"/>
<path d="M8750 3580 c-8 -5 -10 -10 -5 -10 6 0 17 5 25 10 8 5 11 10 5 10 -5
0 -17 -5 -25 -10z"/>
<path d="M2278 3573 c7 -3 16 -2 19 1 4 3 -2 6 -13 5 -11 0 -14 -3 -6 -6z"/>
<path d="M2160 3560 l-35 -7 40 -1 c22 0 54 4 70 8 l30 8 -35 0 c-19 -1 -51
-4 -70 -8z"/>
<path d="M8700 3560 c-8 -5 -10 -10 -5 -10 6 0 17 5 25 10 8 5 11 10 5 10 -5
0 -17 -5 -25 -10z"/>
<path d="M8620 3530 c-8 -5 -10 -10 -5 -10 6 0 17 5 25 10 8 5 11 10 5 10 -5
0 -17 -5 -25 -10z"/>
<path d="M350 3272 c0 -21 139 -34 340 -33 113 0 439 5 725 11 286 6 646 12
800 14 154 1 -188 2 -760 2 -572 -1 -1055 3 -1072 7 -21 5 -33 5 -33 -1z"/>
<path d="M2533 3273 c15 -2 39 -2 55 0 15 2 2 4 -28 4 -30 0 -43 -2 -27 -4z"/>
<path d="M211 2949 c1 -85 5 -194 9 -244 4 -53 5 8 2 150 -2 132 -6 242 -8
244 -2 2 -4 -65 -3 -150z"/>
<path d="M9265 2200 c-18 -7 -18 -9 -3 -15 9 -4 25 -5 34 -3 14 2 15 5 3 14
-8 7 -22 8 -34 4z"/>
<path d="M9490 2136 c0 -2 7 -7 16 -10 8 -3 12 -2 9 4 -6 10 -25 14 -25 6z"/>
<path d="M8133 2123 c48 -2 125 -2 170 0 45 1 6 3 -88 3 -93 0 -130 -2 -82 -3z"/>
<path d="M6758 2093 c7 -3 16 -2 19 1 4 3 -2 6 -13 5 -11 0 -14 -3 -6 -6z"/>
<path d="M6188 2083 c39 -2 105 -2 145 0 39 1 7 3 -73 3 -80 0 -112 -2 -72 -3z"/>
<path d="M4868 2063 c7 -3 16 -2 19 1 4 3 -2 6 -13 5 -11 0 -14 -3 -6 -6z"/>
<path d="M4203 2053 c9 -2 23 -2 30 0 6 3 -1 5 -18 5 -16 0 -22 -2 -12 -5z"/>
<path d="M4278 2053 c7 -3 16 -2 19 1 4 3 -2 6 -13 5 -11 0 -14 -3 -6 -6z"/>
<path d="M4408 2053 c56 -2 148 -2 205 0 56 1 10 3 -103 3 -113 0 -159 -2
-102 -3z"/>
<path d="M3695 2040 c-55 -4 17 -5 160 -2 143 3 262 6 264 8 6 6 -310 1 -424
-6z"/>
<path d="M3558 2033 c7 -3 16 -2 19 1 4 3 -2 6 -13 5 -11 0 -14 -3 -6 -6z"/>
<path d="M3508 2023 c6 -2 18 -2 25 0 6 3 1 5 -13 5 -14 0 -19 -2 -12 -5z"/>
<path d="M3443 2013 c9 -2 25 -2 35 0 9 3 1 5 -18 5 -19 0 -27 -2 -17 -5z"/>
<path d="M3388 2003 c7 -3 16 -2 19 1 4 3 -2 6 -13 5 -11 0 -14 -3 -6 -6z"/>
<path d="M3305 1980 c-3 -6 1 -7 9 -4 18 7 21 14 7 14 -6 0 -13 -4 -16 -10z"/>
<path d="M3270 1970 c-9 -6 -10 -10 -3 -10 6 0 15 5 18 10 8 12 4 12 -15 0z"/>
<path d="M3190 1943 c-178 -81 -293 -151 -406 -247 -79 -67 -89 -75 -154 -125
-25 -19 -52 -42 -62 -50 -9 -9 -44 -38 -79 -66 -34 -27 -88 -72 -119 -100 -94
-84 -191 -169 -223 -195 -17 -14 -54 -45 -82 -70 -28 -25 -60 -52 -72 -60 -11
-9 -22 -24 -24 -35 -6 -27 -45 -45 -104 -46 -27 0 -44 -3 -37 -6 17 -7 5 -23
-19 -23 -11 0 -17 -4 -14 -10 3 -5 2 -10 -2 -10 -17 0 -73 -59 -73 -76 0 -13
3 -15 11 -7 21 21 39 1 59 -64 22 -71 27 -194 10 -238 -8 -21 -15 -26 -31 -22
-20 5 -20 5 -1 -26 22 -39 42 -43 152 -28 143 20 170 30 186 67 36 86 2 335
-51 382 -31 26 -48 29 -41 5 3 -10 8 -31 12 -48 4 -16 16 -40 27 -52 21 -23
17 -53 -7 -53 -11 0 -13 -18 -9 -103 7 -122 -1 -137 -71 -137 l-43 0 -5 125
c-3 69 -10 131 -16 138 -5 6 -16 36 -25 65 -13 46 -13 54 0 67 8 8 27 15 43
15 27 0 45 20 41 46 -1 7 10 15 24 18 14 4 25 13 25 21 0 14 213 204 631 560
240 205 348 282 479 342 41 19 89 40 105 48 17 8 23 14 15 14 -8 0 -31 -7 -50
-16z m-1350 -1131 c0 -14 -11 -21 -26 -15 -21 8 -17 23 6 23 11 0 20 -4 20 -8z"/>
<path d="M2855 1900 c-3 -5 1 -10 9 -10 9 0 16 5 16 10 0 6 -4 10 -9 10 -6 0
-13 -4 -16 -10z"/>
<path d="M2800 1865 c-10 -12 -10 -15 3 -15 8 0 20 7 27 15 10 12 10 15 -3 15
-8 0 -20 -7 -27 -15z"/>
<path d="M2755 1830 c-3 -5 -2 -10 4 -10 5 0 13 5 16 10 3 6 2 10 -4 10 -5 0
-13 -4 -16 -10z"/>
<path d="M2713 1803 c-16 -6 -17 -33 -3 -33 11 0 26 28 19 34 -2 2 -10 1 -16
-1z"/>
<path d="M2655 1747 c-27 -16 -158 -129 -168 -144 -4 -7 -13 -13 -20 -13 -7 0
-43 -31 -80 -70 -37 -38 -72 -70 -77 -70 -6 0 -10 -4 -10 -10 0 -20 18 -9 63
40 25 28 52 50 59 50 8 0 20 9 28 20 8 11 18 20 23 20 12 0 127 99 171 148 41
45 42 47 11 29z"/>
<path d="M2115 1280 c-3 -5 -1 -10 4 -10 6 0 11 5 11 10 0 6 -2 10 -4 10 -3 0
-8 -4 -11 -10z"/>
<path d="M10678 1173 c6 -2 18 -2 25 0 6 3 1 5 -13 5 -14 0 -19 -2 -12 -5z"/>
<path d="M1690 1020 c0 -5 5 -10 11 -10 5 0 7 5 4 10 -3 6 -8 10 -11 10 -2 0
-4 -4 -4 -10z"/>
<path d="M1628 943 c28 -2 76 -2 105 0 28 2 5 3 -53 3 -58 0 -81 -1 -52 -3z"/>
</g>
</svg>
